<svg xmlns="http://www.w3.org/2000/svg" width="24.703" height="18.5" viewBox="0 0 24.703 18.5">
  <g id="automobile-icon" transform="translate(0.001)">
    <path id="Path_10098" data-name="Path 10098" d="M2.044,6.882C-.163,5.76.09,4.509,2.307,4.64l.5.931L3.827,2.388C4.229,1.136,4.9,0,6.212,0H19.3c1.313,0,2.069,1.114,2.386,2.386l.768,3.086L22.9,4.64c2.28-.133,2.483,1.192.07,2.336l.392.6c1.586,1.63,1.437,4.513,1.19,8.54v1.636a.748.748,0,0,1-.746.746H20.621a.748.748,0,0,1-.746-.746v-.913H4.833v.913a.748.748,0,0,1-.746.746H.9a.748.748,0,0,1-.746-.746V15.722A1.1,1.1,0,0,1,.166,15.6c-.241-3.09-.581-7.131,1.878-8.723ZM6.107,11.8l-2.827-.356c-.667-.074-.846.207-.619.782l.306.742a1.072,1.072,0,0,0,.382.426,1.293,1.293,0,0,0,.633.175l2.521.02c.609,0,.873-.245.682-.8A1.364,1.364,0,0,0,6.107,11.8Zm4.825-1.188h2.9a.313.313,0,0,1,.312.312h0a.313.313,0,0,1-.312.312h-2.9a.313.313,0,0,1-.312-.312h0a.311.311,0,0,1,.312-.312Zm7.153,4.093h2.9a.313.313,0,0,1,.312.312h0a.313.313,0,0,1-.312.312h-2.9a.313.313,0,0,1-.312-.312h0a.312.312,0,0,1,.312-.312ZM18.6,11.8l2.827-.356c.667-.074.846.207.619.782l-.306.742a1.072,1.072,0,0,1-.382.426,1.293,1.293,0,0,1-.633.175l-2.521.02c-.609,0-.873-.245-.682-.8A1.364,1.364,0,0,1,18.6,11.8ZM3.7,14.706H6.6a.313.313,0,0,1,.312.312h0a.313.313,0,0,1-.312.312H3.7a.313.313,0,0,1-.312-.312h0a.313.313,0,0,1,.312-.312Zm.165-8.434H21.32l-.77-3.2c-.211-.975-.818-1.819-1.819-1.819H6.646c-1,0-1.512.866-1.819,1.819l-.961,3.2v0Z" transform="translate(0)" fill="#c1c9d6" fill-rule="evenodd"/>
  </g>
</svg>
