<svg xmlns="http://www.w3.org/2000/svg" width="21.127" height="22.5" viewBox="0 0 21.127 22.5">
  <g id="cart_duoline" transform="translate(-0.6 -3)">
    <path id="Path_10099" data-name="Path 10099" d="M3.61,4.672a4.837,4.837,0,0,0-.558-.013H1.427A.829.829,0,0,1,1.427,3H3.106a5.445,5.445,0,0,1,.732.029,3.036,3.036,0,0,1,2.477,2.1c.017.055.032.112.047.171l12,1.7.111.016a5.687,5.687,0,0,1,1.424.311,3.041,3.041,0,0,1,1.82,2.536,5.723,5.723,0,0,1-.158,1.452l-.021.11-.019.1a7.971,7.971,0,0,1-.426,1.705,4.139,4.139,0,0,1-2.846,2.373,7.915,7.915,0,0,1-1.75.109H8.11c.043.228.084.419.129.585a1.437,1.437,0,0,0,.275.607,1.384,1.384,0,0,0,.3.256,1.43,1.43,0,0,0,.643.172c.37.037.851.038,1.574.038h8.412a.829.829,0,0,1,0,1.659H10.994c-.672,0-1.237,0-1.7-.046a2.843,2.843,0,0,1-2.02-.981,3.051,3.051,0,0,1-.633-1.272c-.121-.449-.214-1.007-.325-1.672L4.84,6.178a4.868,4.868,0,0,0-.1-.549A1.38,1.38,0,0,0,3.61,4.672Zm4.219,9.387h8.566a7.345,7.345,0,0,0,1.478-.065,2.484,2.484,0,0,0,1.708-1.424,7.4,7.4,0,0,0,.333-1.445A5.268,5.268,0,0,0,20.07,10a1.382,1.382,0,0,0-.827-1.153,5.232,5.232,0,0,0-1.11-.207L6.658,7.021Z" transform="translate(0 0)" fill="#c1c9d6" fill-rule="evenodd"/>
    <path id="Path_10100" data-name="Path 10100" d="M40.563,43.082A2.282,2.282,0,1,1,38.282,40.8,2.282,2.282,0,0,1,40.563,43.082Z" transform="translate(-20.967 -19.863)" fill="#c1c9d6"/>
    <path id="Path_10101" data-name="Path 10101" d="M18.963,43.082A2.282,2.282,0,1,1,16.682,40.8,2.282,2.282,0,0,1,18.963,43.082Z" transform="translate(-7.903 -19.863)" fill="#c1c9d6"/>
  </g>
</svg>
