<svg xmlns="http://www.w3.org/2000/svg" width="17.667" height="22.083" viewBox="0 0 17.667 22.083">
  <g id="file_duoline" transform="translate(-4.8)">
    <path id="Path_10102" data-name="Path 10102" d="M14.075,0h-.442C9.469,0,7.387,0,6.094,1.294S4.8,4.669,4.8,8.833V13.25c0,4.164,0,6.246,1.294,7.54s3.376,1.294,7.54,1.294,6.246,0,7.54-1.294,1.294-3.376,1.294-7.54V8.833q0-.225,0-.442H20.7q0,.216,0,.442V13.25a39.092,39.092,0,0,1-.146,4.611,2.689,2.689,0,0,1-.63,1.68,2.689,2.689,0,0,1-1.68.63,39.092,39.092,0,0,1-4.611.146,39.092,39.092,0,0,1-4.611-.146,2.688,2.688,0,0,1-1.68-.63,2.688,2.688,0,0,1-.63-1.68,39.1,39.1,0,0,1-.146-4.611V8.833a39.1,39.1,0,0,1,.146-4.611,2.688,2.688,0,0,1,.63-1.68,2.688,2.688,0,0,1,1.68-.63,39.1,39.1,0,0,1,4.611-.146h.442Z" fill="#c1c9d6" fill-rule="evenodd"/>
    <path id="Path_10103" data-name="Path 10103" d="M14.4,23.628a.828.828,0,0,1,.828-.828h7.177a.828.828,0,0,1,0,1.656H15.228A.828.828,0,0,1,14.4,23.628Z" transform="translate(-5.183 -12.31)" fill="#c1c9d6" fill-rule="evenodd"/>
    <path id="Path_10104" data-name="Path 10104" d="M14.4,33.228a.828.828,0,0,1,.828-.828h3.865a.828.828,0,1,1,0,1.656H15.228A.828.828,0,0,1,14.4,33.228Z" transform="translate(-5.183 -17.494)" fill="#c1c9d6" fill-rule="evenodd"/>
    <path id="Path_10105" data-name="Path 10105" d="M28.8,6.07V1.349a.331.331,0,0,1,.565-.234L34.86,6.609a.331.331,0,0,1-.234.565H29.9A1.1,1.1,0,0,1,28.8,6.07Z" transform="translate(-12.958 -0.549)" fill="#c1c9d6"/>
  </g>
</svg>
