<svg id="ford-icon" xmlns="http://www.w3.org/2000/svg" width="65.45" height="24.544" viewBox="0 0 65.45 24.544">
  <path id="Path_10634" data-name="Path 10634" d="M32.725,0C14.557,0,0,5.449,0,12.272c0,6.78,14.685,12.272,32.725,12.272S65.45,19.036,65.45,12.272,50.766,0,32.725,0Z" fill="#1d1d1d"/>
  <path id="Path_10635" data-name="Path 10635" d="M72.762,16.318c.043-.075,0-.128-.1-.128H71.02c-.128,0-.192.011-.24.128-.192.368-2.5,3.83-2.929,4.5-.075.107-.154.085-.17-.032a1.447,1.447,0,0,0-.932-1.081,2.373,2.373,0,0,0-1.241-.149,4.541,4.541,0,0,0-2.035.953c-.905.682-1.667,1.566-2.679,2.226-.543.357-1.289.66-1.795.2a1.522,1.522,0,0,1,.293-2.077.082.082,0,0,1,.149.053.926.926,0,0,0,.261.874.994.994,0,0,0,1.1.128,1.428,1.428,0,0,0,.767-1.113,1.264,1.264,0,0,0-1.156-1.438,2.285,2.285,0,0,0-1.667.607,3.134,3.134,0,0,0-.66.724c-.053.085-.149.1-.138-.032.032-.943-.368-1.47-1.145-1.491a2.932,2.932,0,0,0-1.752.714A16.852,16.852,0,0,0,53.5,21.463c-.064.064-.117.064-.138-.064a3.2,3.2,0,0,0-.463-1.656.4.4,0,0,0-.5-.128,3.13,3.13,0,0,0-.586.346.328.328,0,0,0-.107.368,4.336,4.336,0,0,1-.16,2.887,3.127,3.127,0,0,1-1.816,1.806,1.2,1.2,0,0,1-1.406-.378,2.415,2.415,0,0,1,.41-2.674,5.169,5.169,0,0,1,2.36-1.656c.107-.043.128-.107.1-.192-.043-.149-.128-.336-.16-.431-.085-.208-.3-.25-.575-.218a4.891,4.891,0,0,0-1.774.6,6.138,6.138,0,0,0-2.562,3.159,3.427,3.427,0,0,1-.463.863,7.251,7.251,0,0,1-1.071,1.028.181.181,0,0,0-.043.218,2.376,2.376,0,0,0,.41.543c.085.043.186-.021.229-.043a5.386,5.386,0,0,0,1.049-.932c.075-.1.16-.053.2.085a2.33,2.33,0,0,0,1.491,1.587,3.7,3.7,0,0,0,3.84-1.364,15.415,15.415,0,0,0,1.188-1.534,14.8,14.8,0,0,1,2.338-2.551c.378-.293.831-.511,1.049-.368.176.117.24.389-.053.921-1.049,1.923-2.6,4.187-2.887,4.735-.053.1-.011.17.1.17h1.593a.19.19,0,0,0,.17-.107c.81-1.268,1.577-2.477,2.381-3.718.043-.075.085-.021.085.011a2.056,2.056,0,0,0,.261.943,1.414,1.414,0,0,0,1.225.692,2.407,2.407,0,0,0,1-.208,3.756,3.756,0,0,0,.82-.442c.128-.085.149.053.138.075a2.4,2.4,0,0,0,1.039,2.7c1.2.586,2.509-.24,3.265-.985.075-.075.154-.064.154.1A1.45,1.45,0,0,0,66,26.5c.629.639,1.912.389,3.19-.607a16.279,16.279,0,0,0,2.466-2.487.114.114,0,0,0,0-.16c-.117-.128-.293-.261-.41-.378a.152.152,0,0,0-.176,0,21.46,21.46,0,0,1-2.551,2.338c-.346.24-.911.442-1.156.107a.564.564,0,0,1,.011-.554c.341-.714,5.14-8.011,5.39-8.442Zm-6.338,6.12c.011.053.085.107.154.138.021.011.043.032.011.085a6.3,6.3,0,0,1-.65,1.071,4.332,4.332,0,0,1-.82.89c-.485.4-1.156.831-1.71.543a.844.844,0,0,1-.346-.756,3.863,3.863,0,0,1,1.007-2.381c.788-.964,1.657-1.47,2.226-1.2.586.282.4.964.138,1.5a.126.126,0,0,0-.011.107Z" transform="translate(-20.808 -7.567)" fill="#fff"/>
  <path id="Path_10636" data-name="Path 10636" d="M29.129,22.7a3.349,3.349,0,0,1-3.547-3,3.817,3.817,0,0,1,.8-2.78,3.945,3.945,0,0,1,2.194-1.406.806.806,0,0,1,.714.149.386.386,0,0,1-.064.639,3.716,3.716,0,0,0-1.625,1.5,1.835,1.835,0,0,0,.1,1.9c.714,1.081,2.716,1.113,4.575-.618a14.976,14.976,0,0,0,1.289-1.31,28.625,28.625,0,0,0,2.184-2.791c.011-.021.021-.043.011-.053s-.021-.021-.053-.021a3.275,3.275,0,0,0-1.971.692.375.375,0,0,1-.543-.064.437.437,0,0,1,.17-.586,7.107,7.107,0,0,1,3.18-1,.189.189,0,0,0,.138-.085c.453-.575.8-1.113,1.278-1.7a13.292,13.292,0,0,1,1.6-1.566A6.735,6.735,0,0,1,41.1,9.6c.117-.064-.011-.138-.053-.138C38.6,9,36.059,8.417,33.635,9.306c-1.678.629-2.413,1.965-2.067,2.855.25.629,1.081.735,1.859.357a4.3,4.3,0,0,0,1.667-1.481c.24-.368.735-.107.474.533a4.5,4.5,0,0,1-3.718,3.041,2.168,2.168,0,0,1-2.306-2.269c.011-2.519,2.812-4.176,5.752-4.421,3.547-.293,6.908.65,10.434,1.081a22.579,22.579,0,0,0,7.995-.293.41.41,0,0,1,.527.463c-.032.474-.389.921-1.278,1.406a6.589,6.589,0,0,1-3.19.735c-2.684.021-5.183-1.028-7.776-1.587,0,.117.032.25-.064.314a12.412,12.412,0,0,0-3.6,3.643c-.032.032-.011.064.043.064.756-.043,1.427-.064,2.131-.117.128-.011.128-.043.117-.128a1.75,1.75,0,0,1,.543-1.523,1.105,1.105,0,0,1,1.438-.165,1.125,1.125,0,0,1,.16,1.427,1.669,1.669,0,0,1-1.039.842s-.085.021-.075.1c.021.117.543.41.586.5a.234.234,0,0,1-.064.272.349.349,0,0,1-.25.128.479.479,0,0,1-.261-.1,2.678,2.678,0,0,1-.735-.586c-.075-.085-.107-.085-.272-.075-.767.043-1.955.16-2.748.261-.2.021-.218.064-.261.128A33.663,33.663,0,0,1,33.5,20.625,5.762,5.762,0,0,1,29.129,22.7Zm12.213-9.39c.021.107.064.128.117.117a1.2,1.2,0,0,0,.671-.485c.149-.208.208-.517.075-.639a.387.387,0,0,0-.5.053,1.1,1.1,0,0,0-.368.953Z" transform="translate(-11.946 -3.676)" fill="#fff"/>
  <path id="Path_10637" data-name="Path 10637" d="M33.922,24.427c-17.316,0-31.362-5.017-31.362-11.2S16.606,2.03,33.922,2.03s31.362,5.017,31.362,11.2-14.046,11.2-31.362,11.2Zm0-21.476c-16.709,0-30.259,4.618-30.259,10.264s13.55,10.264,30.259,10.264,30.259-4.618,30.259-10.264S50.63,2.951,33.922,2.951Z" transform="translate(-1.196 -0.949)" fill="#fff"/>
</svg>
