<svg id="hyundai-icon" xmlns="http://www.w3.org/2000/svg" width="59.545" height="30.499" viewBox="0 0 59.545 30.499">
  <path id="Path_10092" data-name="Path 10092" d="M29.772,30.5c16.447,0,29.772-6.833,29.772-15.245S46.209,0,29.772,0,0,6.833,0,15.254,13.336,30.5,29.772,30.5Zm5.611-7.482c-.494,1.148-1.352,3.61-3.3,4.584a4.988,4.988,0,0,1-1.992.46h-.3A51.853,51.853,0,0,1,14.9,26c-.034-.01-.131-.048-.17-.058-.4-.131-.591-.315-.591-.543a.691.691,0,0,1,.242-.485c.058-.063.155-.131.267-.242a35.213,35.213,0,0,1,9.57-5.132A47.35,47.35,0,0,1,31.226,17.3c1.5-.31,7.114-1.168,4.158,5.713ZM50.42,7.651a.592.592,0,0,1,.5-.349,1.046,1.046,0,0,1,.615.2c3.5,2.147,5.563,4.841,5.563,7.748,0,5.248-6.76,9.774-16.427,11.741-.615.121-1.027.121-1.173-.034a.371.371,0,0,1,0-.47,2.18,2.18,0,0,1,.252-.363c5.263-6.2,9.27-15.351,10.414-18,.1-.179.179-.359.252-.48ZM24.258,7.458c.494-1.148,1.352-3.61,3.3-4.584a4.83,4.83,0,0,1,1.992-.46h.3A51.779,51.779,0,0,1,44.746,4.477c.034.01.131.048.17.058.4.131.591.315.591.543a.711.711,0,0,1-.242.485c-.058.058-.155.131-.267.242a34.788,34.788,0,0,1-9.57,5.132,46.361,46.361,0,0,1-7,2.234c-1.531.31-7.128,1.168-4.172-5.713ZM18.865,3.5c.63-.121,1.027-.121,1.182.034a.416.416,0,0,1,0,.47,2.151,2.151,0,0,1-.252.349c-5.263,6.222-9.27,15.356-10.418,18.012-.082.179-.17.363-.242.485a.577.577,0,0,1-.494.349,1.082,1.082,0,0,1-.63-.2c-3.5-2.152-5.558-4.841-5.558-7.748C2.437,9.992,9.2,5.481,18.865,3.5Z" fill="#1d1d1d"/>
</svg>
