<svg id="kia-icon" xmlns="http://www.w3.org/2000/svg" width="61.763" height="32.67" viewBox="0 0 61.763 32.67">
  <path id="Path_10091" data-name="Path 10091" d="M61.763,16.176v.3a9.135,9.135,0,0,1-.442,2.639,12.077,12.077,0,0,1-2.82,4.531C54.737,27.608,48.117,30.6,40.17,31.916a57.312,57.312,0,0,1-10.993.731,59.25,59.25,0,0,1-6.308-.53C14.36,30.9,7.228,27.825,3.257,23.648A11.372,11.372,0,0,1,.146,17.972,7.366,7.366,0,0,1,0,16.366V16.3A7.306,7.306,0,0,1,.146,14.7a10.3,10.3,0,0,1,1.629-3.842C3.649,8.072,6.936,5.6,11.254,3.721,18.447.589,27.866-.652,37.039.329,47.805,1.474,56.667,5.618,60.18,11.151a9.606,9.606,0,0,1,1.583,5.024Zm-49.8,8.416a.555.555,0,0,1-.136-.106c-.065-.079-.065-.138-.075-7.68l-.01-7.6-.09-.1c-.085-.09-.106-.1-.427-.106l-.342-.011V8.03l2.448-.011,2.448-.011.106.09.106.09v2.74c0,3.01-.01,2.9.2,2.9.126,0,.171-.058.88-1.118C18.944,9.9,19.98,8.364,20.07,8.258,20.3,8,20.2,8.008,22.573,8H24.7l.08.085a.336.336,0,0,1,.09.35c-.03.064-.95,1.51-4.172,6.529-.352.546-.452.726-.447.816a11.907,11.907,0,0,0,1.206,1.908c4.313,6.418,4.328,6.439,4.343,6.572a.272.272,0,0,1-.07.233l-.085.106-2.227.011c-2.2.011-2.227.011-2.387-.064a.868.868,0,0,1-.246-.17c-.045-.053-1.061-1.542-2.252-3.307s-2.2-3.233-2.227-3.259a.188.188,0,0,0-.281.064c-.035.069-.04.795-.04,3.307V24.4l-.08.1-.08.1-1.895.005c-1.05.011-1.935,0-1.97-.016ZM36.1,24.581a.28.28,0,0,1-.151-.265c0-.064.477-1.622,1.061-3.461s1.513-4.77,2.066-6.508,1.131-3.567,1.292-4.06a10.222,10.222,0,0,0,.292-1,.341.341,0,0,0-.065-.18c-.06-.074-.1-.085-.4-.1l-.332-.016-.01-.488-.01-.488h2.991c1.96,0,3.031.011,3.116.037a.282.282,0,0,1,.161.111c.04.085.377,1.129,1.955,6.1,2.568,8.088,3.157,9.959,3.157,10.033a.325.325,0,0,1-.156.291c-.055.026-.653.037-1.955.037a7.654,7.654,0,0,1-1.99-.064.577.577,0,0,1-.176-.154c-.035-.048-.3-.853-.583-1.791-2.719-8.93-2.644-8.687-2.7-8.761s-.116-.074-.181.011c-.055.064-.161.4-1.639,5.311-.427,1.426-.89,2.957-1.025,3.408s-.312,1.028-.387,1.288c-.151.509-.221.631-.392.7-.151.064-3.83.069-3.936.005Zm-7.238-.005a.316.316,0,0,1-.141-.143c-.03-.074-.04-1.765-.04-7.658V9.212l-.1-.106C28.484,9,28.469,9,28.157,9h-.322V8h4.981l.111.106.111.1V24.4l-.09.1-.1.1-1.945.011a13.012,13.012,0,0,1-2.046-.032ZM50.248,6.27a18.848,18.848,0,0,1,5.1,3.742,10.7,10.7,0,0,1,2.031,2.894,7.5,7.5,0,0,1,.794,3.424A7.4,7.4,0,0,1,57.4,19.7a10.55,10.55,0,0,1-2.051,2.947,15.547,15.547,0,0,1-2.513,2.168,28.6,28.6,0,0,1-7.449,3.62,45.548,45.548,0,0,1-11.5,2.109c-.744.048-4.574.069-5.338.032-6.75-.35-12.49-1.775-17.165-4.266a18.655,18.655,0,0,1-4.956-3.662,9.319,9.319,0,0,1-2.815-5.814,8.537,8.537,0,0,1,1.92-5.8A17.715,17.715,0,0,1,7.4,9.058c4.152-3.62,10.857-6.063,18.668-6.805a53.47,53.47,0,0,1,9.661,0A39.507,39.507,0,0,1,50.248,6.27Z" transform="translate(0 -0.001)" fill="#1d1d1d" fill-rule="evenodd"/>
</svg>
