<svg id="nissan-icon" xmlns="http://www.w3.org/2000/svg" width="51.883" height="43.413" viewBox="0 0 51.883 43.413">
  <path id="Path_9357" data-name="Path 9357" d="M63.735,49.045a2.76,2.76,0,0,1-.279.008H58.145V50.29h5.4c.042,0,.359,0,.422-.008a1.759,1.759,0,0,0,1.6-1.824,1.734,1.734,0,0,0-1.524-1.8,3.921,3.921,0,0,0-.431-.021h-3.53a1.8,1.8,0,0,1-.393-.03.516.516,0,0,1-.38-.524.527.527,0,0,1,.393-.515,1.49,1.49,0,0,1,.372-.03h5.1V44.32H60a3.416,3.416,0,0,0-.515.03,1.767,1.767,0,0,0-.021,3.492c.186.021.443.021.557.021h3.437a2.064,2.064,0,0,1,.245.008.594.594,0,0,1,.034,1.174Z" transform="translate(-33.499 -25.607)" fill="#1d1d1d"/>
  <path id="Path_9358" data-name="Path 9358" d="M39.885,49.045a2.626,2.626,0,0,1-.266.008H34.3V50.29h5.4c.042,0,.359,0,.422-.008a1.759,1.759,0,0,0,1.6-1.824,1.734,1.734,0,0,0-1.524-1.8,3.921,3.921,0,0,0-.431-.021h-3.53a1.8,1.8,0,0,1-.393-.03.516.516,0,0,1-.38-.524.527.527,0,0,1,.393-.515,1.446,1.446,0,0,1,.372-.03h5.1V44.32H36.148a3.416,3.416,0,0,0-.515.03,1.767,1.767,0,0,0-.021,3.492c.186.021.443.021.557.021h3.437a2.064,2.064,0,0,1,.245.008.564.564,0,0,1,.524.6.557.557,0,0,1-.49.574Z" transform="translate(-19.719 -25.607)" fill="#1d1d1d"/>
  <path id="Path_9359" data-name="Path 9359" d="M24.8,50.272h1.334V44.23H24.8Z" transform="translate(-14.329 -25.555)" fill="#1d1d1d"/>
  <path id="Path_9360" data-name="Path 9360" d="M7.516,50.272V44.23H6.177v4.509L1.718,44.23H0v6.042H1.338v-4.53l4.488,4.53Z" transform="translate(0 -25.555)" fill="#1d1d1d"/>
  <path id="Path_9361" data-name="Path 9361" d="M111.283,44.23v4.509l-4.454-4.509H105.11v6.042h1.338v-4.53l4.476,4.53h1.689V44.23Z" transform="translate(-60.73 -25.555)" fill="#1d1d1d"/>
  <path id="Path_9362" data-name="Path 9362" d="M83.446,44.23,79.68,50.272h1.626l.667-1.081h4.4l.667,1.081h1.617L84.886,44.23Zm2.234,3.817H82.665l1.512-2.428,1.5,2.428Z" transform="translate(-46.037 -25.555)" fill="#1d1d1d"/>
  <path id="Path_9363" data-name="Path 9363" d="M9.535,15.247a19.592,19.592,0,0,1,37.017,0l.021.063h5.9V14.6l-2.449-.287a2.386,2.386,0,0,1-2.242-1.689l-.1-.207a21.725,21.725,0,0,0-39.267.021l-.1.207A2.4,2.4,0,0,1,6.069,14.33l-2.449.287v.709H9.51l.025-.08Z" transform="translate(-2.092)" fill="#1d1d1d"/>
  <path id="Path_9364" data-name="Path 9364" d="M46.579,66.528l-.021.063a19.523,19.523,0,0,1-18.51,13.157h0A19.523,19.523,0,0,1,9.537,66.583l-.021-.063H3.63v.709l2.449.287a2.386,2.386,0,0,1,2.242,1.689l.1.207A21.742,21.742,0,0,0,28.052,81.847h0A21.747,21.747,0,0,0,47.681,69.421l.1-.207a2.391,2.391,0,0,1,2.242-1.689l2.449-.287v-.709Z" transform="translate(-2.097 -38.434)" fill="#1d1d1d"/>
</svg>
