<svg xmlns="http://www.w3.org/2000/svg" width="17.502" height="19.752" viewBox="0 0 17.502 19.752">
  <g id="bell_duoline" transform="translate(-3 -0.6)">
    <path id="Path_10119" data-name="Path 10119" d="M11.751,2.1A5.425,5.425,0,0,0,6.278,7.476v.035c0,.161,0,.276,0,.348q0,.038,0,.077a2.485,2.485,0,0,1-.1.706,2.486,2.486,0,0,1-.36.616l-.045.062c-.043.059-.24.305-.581.731l-.083.1a2.7,2.7,0,0,0-.6,1.7A2.778,2.778,0,0,0,7.306,14.6H16.2A2.778,2.778,0,0,0,19,11.851a2.7,2.7,0,0,0-.6-1.7l-.083-.1c-.341-.426-.538-.672-.581-.731L17.7,9.257a2.485,2.485,0,0,1-.36-.616,2.483,2.483,0,0,1-.1-.706q0-.039,0-.077c0-.073,0-.187,0-.348V7.476A5.425,5.425,0,0,0,11.751,2.1ZM4.778,7.476a6.974,6.974,0,0,1,13.946,0c0,.209,0,.278,0,.3l0,.041c.007.136.011.213.017.274,0,.025,0,.04.006.048s.011.02.025.041c.033.051.079.115.158.225l.024.034s0,0,0,0l.036.046.121.152.46.575h0a4.2,4.2,0,0,1,.926,2.634A4.278,4.278,0,0,1,16.2,16.1H7.306A4.278,4.278,0,0,1,3,11.851a4.2,4.2,0,0,1,.927-2.634l.46-.575.121-.152.034-.043,0,0,.024-.034c.079-.11.125-.174.158-.225.014-.021.021-.035.025-.041s0-.022.006-.048c.006-.061.01-.139.017-.274l0-.041C4.778,7.753,4.778,7.685,4.778,7.476Z" fill="#d3d6dc" fill-rule="evenodd"/>
    <path id="Path_10120" data-name="Path 10120" d="M21.9,42h-4c-.468,0-.7,0-.85.227s-.072.4.079.74A2.717,2.717,0,0,0,19.9,44.5a2.717,2.717,0,0,0,2.772-1.533c.151-.342.227-.513.079-.74S22.367,42,21.9,42Z" transform="translate(-8.148 -24.148)" fill="#fbc51f"/>
  </g>
</svg>
