<svg xmlns="http://www.w3.org/2000/svg" width="48.108" height="32.67" viewBox="0 0 48.108 32.67">
  <g id="toyota-icon" transform="translate(0 0)">
    <path id="Path_9356" data-name="Path 9356" d="M40.454,30.78C26.871,30.78,16.4,37.694,16.4,47.112S26.871,63.45,40.454,63.45s24.054-6.919,24.054-16.332S54.037,30.78,40.454,30.78Zm14.694,7.69c0,2.159-3.457,3.834-8.993,4.5-.516-5.175-2.01-8.578-3.93-9.849,5.908.372,12.923,2.468,12.923,5.35ZM40.454,55.935c-1.931,0-3.5-3-3.627-8.8,1.154.1,2.367.144,3.627.144s2.468-.048,3.622-.144c-.122,5.791-1.7,8.8-3.622,8.8Zm0-12.657q-1.779,0-3.388-.106c.527-3.462,1.845-6.313,3.388-6.313s2.861,2.851,3.382,6.313c-1.069.085-2.2.122-3.382.122v-.016ZM38.688,33.109c-1.92,1.271-3.42,4.675-3.935,9.849-5.542-.67-8.993-2.34-8.993-4.5,0-2.882,7.02-4.967,12.928-5.339v-.011ZM20.495,46.469a.032.032,0,0,0,.005-.021,10.57,10.57,0,0,1,2.1-6.318c.537,3.1,5.063,5.776,11.971,6.754v.229c0,7.562,1.76,12.434,4.18,13.955-10.243-.628-18.257-6.956-18.257-14.6Zm21.693,14.6c2.414-1.537,4.175-6.408,4.175-13.955v-.229c6.908-.973,11.434-3.654,11.971-6.754a10.564,10.564,0,0,1,2.074,6.281v.053c0,7.637-8.014,13.966-18.231,14.6Z" transform="translate(-16.4 -30.78)" fill="#1d1d1d"/>
  </g>
</svg>
