<svg xmlns="http://www.w3.org/2000/svg" width="18" height="22.5" viewBox="0 0 18 22.5">
  <g id="user_duoline" transform="translate(-4.8)">
    <path id="Path_10096" data-name="Path 10096" d="M17.032,30.488H10.568a4.081,4.081,0,0,0-4.081,4.081.968.968,0,0,0,.774,1.005,40.591,40.591,0,0,0,6.538.539,40.592,40.592,0,0,0,6.538-.539.968.968,0,0,0,.774-1.005A4.081,4.081,0,0,0,17.032,30.488ZM10.568,28.8A5.768,5.768,0,0,0,4.8,34.568a2.654,2.654,0,0,0,2.186,2.67A42.28,42.28,0,0,0,13.8,37.8a42.28,42.28,0,0,0,6.814-.562,2.654,2.654,0,0,0,2.186-2.67A5.768,5.768,0,0,0,17.032,28.8Z" transform="translate(0 -15.3)" fill="#c1c9d6" fill-rule="evenodd"/>
    <path id="Path_10097" data-name="Path 10097" d="M13.688,5.625a3.938,3.938,0,1,0,3.938-3.938A3.938,3.938,0,0,0,13.688,5.625ZM17.625,0A5.625,5.625,0,1,0,23.25,5.625,5.625,5.625,0,0,0,17.625,0Z" transform="translate(-3.825)" fill="#c1c9d6" fill-rule="evenodd"/>
  </g>
</svg>
